<svg width="30" height="30" viewBox="0 0 30 30" fill="none" xmlns="http://www.w3.org/2000/svg">
<circle cx="15" cy="15" r="15" fill="#1AB0CE"/>
<path d="M18.5967 17.3408C18.5967 18.3115 18.2777 19.0316 17.6396 19.501C17.0062 19.9658 16.1335 20.1982 15.0215 20.1982C14.2285 20.1982 13.5563 20.0547 13.0049 19.7676C12.458 19.4759 12.0684 19.109 11.8359 18.667L13.3877 17.6074C13.5563 17.8672 13.766 18.0768 14.0166 18.2363C14.2673 18.3958 14.609 18.4756 15.042 18.4756C15.5889 18.4756 15.9854 18.3708 16.2314 18.1611C16.4821 17.9515 16.6074 17.6302 16.6074 17.1973C16.6074 16.3223 16.0286 15.8848 14.8711 15.8848H14.0303V14.2305H14.7617C15.3405 14.2305 15.762 14.1165 16.0264 13.8887C16.2907 13.6608 16.4229 13.3646 16.4229 13C16.4229 12.7311 16.3271 12.5078 16.1357 12.3301C15.9443 12.1523 15.6299 12.0635 15.1924 12.0635C14.7549 12.0635 14.404 12.1341 14.1396 12.2754C13.8799 12.4121 13.6566 12.6217 13.4697 12.9043L11.9316 11.8242C12.3053 11.3184 12.7565 10.9447 13.2852 10.7031C13.8184 10.4616 14.502 10.3408 15.3359 10.3408C15.9694 10.3408 16.5208 10.4411 16.9902 10.6416C17.4642 10.8376 17.8219 11.111 18.0635 11.4619C18.305 11.8128 18.4258 12.2139 18.4258 12.665C18.4258 13.9001 17.7878 14.6748 16.5117 14.9893C17.1361 15.0303 17.6396 15.2673 18.0225 15.7002C18.4053 16.1286 18.5967 16.6755 18.5967 17.3408Z" fill="white"/>
</svg>
